<?xml version="1.0" encoding="UTF-8" standalone="no"?>
<!DOCTYPE svg PUBLIC "-//W3C//DTD SVG 1.1//EN" "http://www.w3.org/Graphics/SVG/1.1/DTD/svg11.dtd">
<svg width="100%" height="100%" viewBox="0 0 128 128" version="1.1" xmlns="http://www.w3.org/2000/svg" xmlns:xlink="http://www.w3.org/1999/xlink" xml:space="preserve" xmlns:serif="http://www.serif.com/" style="fill-rule:evenodd;clip-rule:evenodd;stroke-linejoin:round;stroke-miterlimit:2;">
    <g transform="matrix(1,0,0,1,-143.191,0)">
        <g id="off" transform="matrix(0.996048,0,0,1.00325,142.609,-0.501135)">
            <rect x="0.584" y="0.5" width="128.508" height="127.586" style="fill:none;"/>
            <g transform="matrix(0.971005,0,0,0.964039,2.9792,2.68935)">
                <path d="M127.215,32.146L127.215,95.656C127.215,113.182 112.987,127.41 95.461,127.41L31.951,127.41C14.425,127.41 0.197,113.182 0.197,95.656C0.197,95.656 0.197,32.146 0.197,32.146C0.197,14.62 14.425,0.392 31.951,0.392L95.461,0.392C112.987,0.392 127.215,14.621 127.215,32.146Z" style="fill:rgb(38,35,29);"/>
            </g>
            <g transform="matrix(2.72376,0,0,2.74706,-114.747,-104.232)">
                <path d="M60.868,47.498L60.686,56.321C61.899,55.169 63.005,54.373 64.006,53.933C65.006,53.494 66.189,53.274 67.553,53.274C70.16,53.274 72.252,54.017 73.829,55.502C75.405,56.988 76.194,58.943 76.194,61.369L76.194,68.963C76.194,70.752 76.209,71.738 76.239,71.919C76.36,73.435 76.754,74.193 77.421,74.193C77.664,74.193 78.013,74.133 78.467,74.011C78.649,73.981 78.892,73.966 79.195,73.966C80.317,73.966 80.878,74.466 80.878,75.467C80.878,76.467 80.15,76.967 78.695,76.967C78.301,76.967 77.725,76.922 76.967,76.831C75.693,76.679 74.663,76.604 73.874,76.604C73.086,76.604 72.48,76.634 72.055,76.694C70.782,76.876 69.994,76.967 69.69,76.967C69.145,76.967 68.69,76.808 68.326,76.49C67.962,76.172 67.78,75.77 67.78,75.285C67.78,74.891 67.94,74.557 68.258,74.284C68.576,74.011 68.948,73.875 69.372,73.875C69.706,73.875 70.1,73.951 70.554,74.102C70.827,74.193 71.085,74.239 71.328,74.239C72.237,74.239 72.707,73.253 72.737,71.283C72.737,70.919 72.753,70.206 72.783,69.145L72.828,67.19L72.828,64.734C72.828,61.642 72.525,59.565 71.919,58.504C71.04,56.927 69.493,56.139 67.28,56.139C64.885,56.139 63.142,56.958 62.05,58.595C61.292,59.716 60.898,61.52 60.868,64.006L60.822,67.281C60.822,67.463 60.807,67.766 60.777,68.19L60.777,69.054C60.777,70.783 60.792,71.783 60.822,72.056C60.974,73.541 61.414,74.284 62.141,74.284C62.384,74.284 62.725,74.231 63.164,74.125C63.604,74.019 63.93,73.966 64.142,73.966C65.112,73.966 65.597,74.436 65.597,75.376C65.597,76.437 64.93,76.967 63.597,76.967C63.172,76.967 62.535,76.922 61.686,76.831C60.534,76.71 59.549,76.649 58.73,76.649C58.215,76.649 57.503,76.694 56.593,76.785C55.38,76.907 54.607,76.967 54.274,76.967C53.031,76.967 52.409,76.422 52.409,75.33C52.409,74.421 52.985,73.966 54.137,73.966C54.531,73.966 54.819,73.996 55.001,74.057C55.517,74.148 55.881,74.193 56.093,74.193C56.578,74.193 56.904,73.731 57.071,72.806C57.237,71.882 57.336,69.994 57.366,67.144L57.412,59.004C57.412,54.456 57.321,51.584 57.139,50.386C56.957,49.189 56.532,48.59 55.865,48.59C55.653,48.59 55.335,48.635 54.91,48.726C54.486,48.817 54.152,48.863 53.91,48.863C52.879,48.863 52.364,48.378 52.364,47.407C52.364,46.983 52.546,46.619 52.909,46.316C53.273,46.013 53.713,45.861 54.228,45.861C54.38,45.861 54.895,45.907 55.774,45.998C56.351,46.058 56.972,46.089 57.639,46.089C57.912,46.089 58.291,46.058 58.776,45.998C59.261,45.937 59.61,45.907 59.822,45.907C60.519,45.907 60.868,46.407 60.868,47.407L60.868,47.498Z" style="fill:rgb(250,228,176);fill-rule:nonzero;"/>
            </g>
        </g>
    </g>
</svg>
