<?xml version="1.0" encoding="UTF-8" standalone="no"?>
<!DOCTYPE svg PUBLIC "-//W3C//DTD SVG 1.1//EN" "http://www.w3.org/Graphics/SVG/1.1/DTD/svg11.dtd">
<svg width="100%" height="100%" viewBox="0 0 128 128" version="1.1" xmlns="http://www.w3.org/2000/svg" xmlns:xlink="http://www.w3.org/1999/xlink" xml:space="preserve" xmlns:serif="http://www.serif.com/" style="fill-rule:evenodd;clip-rule:evenodd;stroke-linejoin:round;stroke-miterlimit:2;">
    <g id="on" transform="matrix(0.996048,0,0,1.00325,-0.581799,-0.501135)">
        <rect x="0.584" y="0.5" width="128.508" height="127.586" style="fill:none;"/>
        <clipPath id="_clip1">
            <rect x="0.584" y="0.5" width="128.508" height="127.586"/>
        </clipPath>
        <g clip-path="url(#_clip1)">
            <g transform="matrix(0.971005,0,0,0.964039,2.9792,2.68935)">
                <path d="M127.215,32.146L127.215,95.656C127.215,113.182 112.987,127.41 95.461,127.41L31.951,127.41C14.425,127.41 0.197,113.182 0.197,95.656C0.197,95.656 0.197,32.146 0.197,32.146C0.197,14.62 14.425,0.392 31.951,0.392L95.461,0.392C112.987,0.392 127.215,14.621 127.215,32.146Z" style="fill:rgb(250,228,176);"/>
                <path d="M127.215,45.932C126.105,45.932 126.053,45.907 125.268,45.122C124.273,44.127 124.458,43.984 124.458,42.573L124.458,38.828C124.553,38.618 124.798,38.488 124.864,38.267C124.94,38.013 124.864,37.736 124.864,37.471L124.864,32.136C125.093,31.586 125.133,30.908 125.555,30.486C125.567,30.474 127.217,29.792 127.226,29.795C127.777,30.023 128.454,30.064 128.876,30.486C129.742,31.352 129.566,31.48 129.566,32.708L129.566,38.267C129.633,38.488 129.911,38.606 129.973,38.828L129.973,43.186C129.71,43.834 129.657,44.628 129.163,45.122C128.378,45.907 128.326,45.932 127.215,45.932ZM127.215,79.019C126.105,79.019 126.053,78.994 125.268,78.209C124.273,77.213 124.458,77.07 124.458,75.659L124.458,71.915C124.553,71.704 124.798,71.575 124.864,71.354C124.94,71.099 124.864,70.823 124.864,70.557L124.864,65.222C125.093,64.672 125.133,63.994 125.555,63.572C125.567,63.56 127.217,62.878 127.226,62.882C127.777,63.11 128.454,63.151 128.876,63.572C129.742,64.438 129.566,64.567 129.566,65.794L129.566,71.354C129.633,71.575 129.911,71.692 129.973,71.915C130.053,72.207 129.973,72.521 129.973,72.825L129.973,76.272C129.71,76.921 129.657,77.714 129.163,78.209C128.378,78.994 128.326,79.019 127.215,79.019ZM123.158,111.431C122.153,110.965 122.116,110.921 121.733,109.882C121.188,108.406 121.572,108.372 122.184,106.925C122.854,105.341 123.212,104.073 123.217,104.068C123.248,104.037 123.3,104.13 123.691,103.807C123.753,103.756 124.456,101.393 124.733,98.447C124.837,97.345 124.746,97.24 125.591,96.524C125.605,96.513 127.302,95.97 127.31,95.974C127.841,96.247 128.512,96.344 128.897,96.799C129.631,97.666 129.521,97.759 129.415,98.889C129.067,102.581 128.225,104.986 128.259,105.125C128.392,105.662 128.496,105.62 128.495,105.667C128.487,105.957 126.972,109.926 126.813,110.092C126.326,110.595 125.922,111.269 125.266,111.511C125.108,111.57 124.188,111.909 123.158,111.431ZM95.815,127.527C95.71,126.424 95.73,126.37 96.434,125.514C97.342,124.411 97.516,124.617 98.934,124.447C100.801,124.224 102.193,123.862 102.204,123.864C102.382,123.885 102.318,124.266 103.09,124.059C106.062,123.261 108.084,122.2 108.126,122.196C108.719,122.132 109.351,121.911 109.914,122.11C109.93,122.115 111.256,123.307 111.256,123.316C111.289,123.911 111.544,124.54 111.345,125.103C110.97,126.167 110.837,126.122 109.816,126.597C106.598,128.095 103.984,128.669 103.951,128.695C103.843,128.779 103.722,128.851 103.632,128.954C103.564,129.032 103.573,129.175 103.483,129.228C103.254,129.362 99.041,130.061 98.816,130.006C98.135,129.842 97.35,129.832 96.809,129.387C96.679,129.28 95.923,128.657 95.815,127.527ZM62.721,127.41C62.721,126.3 62.746,126.248 63.531,125.463C64.526,124.468 64.669,124.653 66.08,124.653L69.825,124.653C70.036,124.748 70.165,124.993 70.386,125.059C70.64,125.136 70.917,125.059 71.182,125.059L76.517,125.059C77.068,125.288 77.746,125.328 78.167,125.75C78.18,125.762 78.861,127.412 78.858,127.421C78.63,127.972 78.589,128.649 78.167,129.071C77.301,129.937 77.173,129.761 75.946,129.761L70.386,129.761C70.165,129.828 70.047,130.106 69.825,130.168C69.533,130.248 69.218,130.168 68.915,130.168L65.468,130.168C64.819,129.905 64.026,129.853 63.531,129.358C62.746,128.573 62.721,128.521 62.721,127.41ZM29.634,127.41C29.634,126.3 29.659,126.248 30.444,125.463C31.44,124.468 31.583,124.653 32.994,124.653L36.739,124.653C36.949,124.748 37.078,124.993 37.3,125.059C37.554,125.136 37.83,125.059 38.096,125.059L43.431,125.059C43.981,125.288 44.659,125.328 45.081,125.75C45.093,125.762 45.775,127.412 45.771,127.421C45.544,127.972 45.502,128.649 45.081,129.071C44.215,129.937 44.087,129.761 42.859,129.761L37.3,129.761C37.078,129.828 36.961,130.106 36.739,130.168C36.446,130.248 36.132,130.168 35.829,130.168L32.381,130.168C31.733,129.905 30.939,129.853 30.444,129.358C29.659,128.573 29.634,128.521 29.634,127.41ZM3.333,109.697C4.283,109.125 4.34,109.119 5.415,109.384C7.026,109.781 6.663,110.313 8.895,113.234C9.351,113.832 9.374,113.816 9.4,113.876C9.418,113.92 9.285,113.919 9.375,114.474C9.376,114.48 10.847,116.347 13.204,118.301C14.053,119.005 14.189,118.99 14.303,120.088C14.305,120.106 13.797,121.814 13.789,121.818C13.265,122.103 12.807,122.603 12.214,122.665C11.088,122.782 11.073,122.642 10.203,121.921C7.429,119.622 5.817,117.524 5.753,117.497C5.249,117.276 5.16,117.382 5.113,117.345C4.854,117.142 2.442,113.694 2.395,113.474C2.25,112.79 1.919,112.077 2.086,111.398C2.126,111.234 2.361,110.282 3.333,109.697ZM0.197,77.048C1.307,77.048 1.359,77.073 2.144,77.858C3.139,78.854 2.954,78.997 2.954,80.408L2.954,84.152C2.859,84.363 2.614,84.492 2.548,84.714C2.472,84.968 2.548,85.244 2.548,85.51L2.548,90.845C2.319,91.395 2.279,92.073 1.857,92.495C1.845,92.507 0.195,93.189 0.186,93.185C-0.365,92.958 -1.042,92.916 -1.464,92.495C-2.33,91.629 -2.154,91.501 -2.154,90.273L-2.154,84.714C-2.221,84.492 -2.499,84.375 -2.561,84.152C-2.641,83.86 -2.561,83.546 -2.561,83.243L-2.561,79.795C-2.298,79.146 -2.246,78.353 -1.751,77.858C-0.966,77.073 -0.914,77.048 0.197,77.048ZM0.197,43.962C1.307,43.962 1.359,43.987 2.144,44.772C3.139,45.767 2.954,45.91 2.954,47.322L2.954,51.066C2.859,51.277 2.614,51.406 2.548,51.627C2.472,51.881 2.548,52.158 2.548,52.423L2.548,57.758C2.319,58.309 2.279,58.987 1.857,59.408C1.845,59.421 0.195,60.103 0.186,60.099C-0.365,59.871 -1.042,59.83 -1.464,59.408C-2.33,58.543 -2.154,58.414 -2.154,57.187L-2.154,51.627C-2.221,51.406 -2.499,51.289 -2.561,51.066C-2.641,50.774 -2.561,50.459 -2.561,50.156L-2.561,46.709C-2.298,46.06 -2.246,45.267 -1.751,44.772C-0.966,43.987 -0.914,43.962 0.197,43.962ZM6.963,12.367C7.887,12.98 7.917,13.029 8.138,14.114C8.453,15.659 8.066,15.634 7.24,16.975C6.339,18.438 5.793,19.634 5.787,19.638C5.75,19.662 5.71,19.56 5.264,19.839C5.22,19.866 4.162,22.059 3.432,24.963C3.163,26.035 3.237,26.152 2.293,26.731C2.279,26.74 0.518,27.019 0.511,27.014C0.028,26.664 -0.621,26.466 -0.933,25.958C-1.526,24.991 -1.404,24.916 -1.128,23.817C-0.234,20.261 0.97,17.965 0.962,17.849C0.922,17.277 0.809,17.302 0.815,17.253C0.843,17.016 2.963,13.279 3.148,13.138C3.705,12.713 4.207,12.108 4.892,11.968C5.058,11.935 6.018,11.739 6.963,12.367ZM36.426,0.392C36.426,1.502 36.401,1.554 35.616,2.339C35.121,2.834 34.346,2.937 33.679,3.149C33.65,3.158 31.454,3.114 30.052,3.21C29.642,3.238 29.621,3.299 29.511,3.196C29.207,2.914 29.194,2.866 28.671,2.924C25.735,3.246 23.457,3.996 23.442,3.994C22.848,3.933 22.188,4.09 21.662,3.808C21.646,3.799 20.518,2.42 20.519,2.41C20.577,1.817 20.421,1.157 20.703,0.631C21.295,-0.474 21.469,-0.351 22.681,-0.682C27.06,-1.876 28.454,-1.639 28.771,-1.88C28.884,-1.966 28.967,-2.086 29.062,-2.192C29.077,-2.209 29.077,-2.245 29.1,-2.249C29.77,-2.356 33.623,-2.388 33.679,-2.365C34.328,-2.103 35.121,-2.05 35.616,-1.556C36.401,-0.771 36.426,-0.718 36.426,0.392ZM69.512,0.392C69.512,1.502 69.487,1.554 68.702,2.339C67.707,3.334 67.564,3.149 66.153,3.149L62.408,3.149C62.198,3.054 62.068,2.809 61.847,2.743C61.593,2.667 61.316,2.743 61.051,2.743L55.716,2.743C55.166,2.514 54.488,2.474 54.066,2.052C54.054,2.04 53.372,0.39 53.375,0.381C53.603,-0.17 53.644,-0.847 54.066,-1.269C54.932,-2.135 55.06,-1.959 56.288,-1.959L61.847,-1.959C62.068,-2.026 62.186,-2.304 62.408,-2.365C62.701,-2.446 63.015,-2.365 63.318,-2.365L66.766,-2.365C67.414,-2.103 68.208,-2.05 68.702,-1.556C69.487,-0.771 69.512,-0.718 69.512,0.392ZM102.559,1.067C102.407,2.165 102.375,2.213 101.492,2.882C100.412,3.7 100.303,3.52 98.961,3.358C97.068,3.13 95.51,3.151 95.487,3.149C95.432,3.143 95.587,2.921 94.929,2.743C94.673,2.673 94.399,2.743 94.133,2.743L88.802,2.743C88.252,2.514 87.574,2.474 87.152,2.052C87.14,2.04 86.458,0.39 86.462,0.381C86.689,-0.17 86.731,-0.847 87.152,-1.269C88.018,-2.135 88.147,-1.959 89.374,-1.959L94.938,-1.959C95.597,-2.138 95.447,-2.361 95.503,-2.365C96.317,-2.423 100.073,-2.121 100.215,-2.04C100.822,-1.692 101.6,-1.531 102.023,-0.973C102.125,-0.839 102.716,-0.059 102.559,1.067ZM125.877,22.593C124.852,23.014 124.794,23.012 123.771,22.587C122.307,21.978 122.551,21.667 121.898,20.224C121.201,18.682 120.516,17.554 120.514,17.546C120.503,17.498 120.638,17.52 120.624,16.946C120.624,16.935 119.841,15.599 118.64,14.062C117.877,13.087 117.2,12.359 117.199,12.355C116.966,11.806 116.573,11.264 116.601,10.668C116.601,10.651 117.36,9.038 117.369,9.035C117.93,8.832 118.458,8.407 119.054,8.434C120.183,8.487 120.178,8.628 120.929,9.471C123.317,12.15 124.605,14.472 124.654,14.504C125.137,14.818 125.199,14.686 125.274,14.762C125.491,14.983 127.364,18.774 127.377,19.002C127.417,19.701 127.636,20.455 127.368,21.101C127.303,21.257 126.927,22.162 125.877,22.593Z" style="fill:rgb(38,35,29);"/>
            </g>
            <g transform="matrix(2.72376,0,0,2.74706,-114.747,-104.232)">
                <path d="M60.868,47.498L60.686,56.321C61.899,55.169 63.005,54.373 64.006,53.933C65.006,53.494 66.189,53.274 67.553,53.274C70.16,53.274 72.252,54.017 73.829,55.502C75.405,56.988 76.194,58.943 76.194,61.369L76.194,68.963C76.194,70.752 76.209,71.738 76.239,71.919C76.36,73.435 76.754,74.193 77.421,74.193C77.664,74.193 78.013,74.133 78.467,74.011C78.649,73.981 78.892,73.966 79.195,73.966C80.317,73.966 80.878,74.466 80.878,75.467C80.878,76.467 80.15,76.967 78.695,76.967C78.301,76.967 77.725,76.922 76.967,76.831C75.693,76.679 74.663,76.604 73.874,76.604C73.086,76.604 72.48,76.634 72.055,76.694C70.782,76.876 69.994,76.967 69.69,76.967C69.145,76.967 68.69,76.808 68.326,76.49C67.962,76.172 67.78,75.77 67.78,75.285C67.78,74.891 67.94,74.557 68.258,74.284C68.576,74.011 68.948,73.875 69.372,73.875C69.706,73.875 70.1,73.951 70.554,74.102C70.827,74.193 71.085,74.239 71.328,74.239C72.237,74.239 72.707,73.253 72.737,71.283C72.737,70.919 72.753,70.206 72.783,69.145L72.828,67.19L72.828,64.734C72.828,61.642 72.525,59.565 71.919,58.504C71.04,56.927 69.493,56.139 67.28,56.139C64.885,56.139 63.142,56.958 62.05,58.595C61.292,59.716 60.898,61.52 60.868,64.006L60.822,67.281C60.822,67.463 60.807,67.766 60.777,68.19L60.777,69.054C60.777,70.783 60.792,71.783 60.822,72.056C60.974,73.541 61.414,74.284 62.141,74.284C62.384,74.284 62.725,74.231 63.164,74.125C63.604,74.019 63.93,73.966 64.142,73.966C65.112,73.966 65.597,74.436 65.597,75.376C65.597,76.437 64.93,76.967 63.597,76.967C63.172,76.967 62.535,76.922 61.686,76.831C60.534,76.71 59.549,76.649 58.73,76.649C58.215,76.649 57.503,76.694 56.593,76.785C55.38,76.907 54.607,76.967 54.274,76.967C53.031,76.967 52.409,76.422 52.409,75.33C52.409,74.421 52.985,73.966 54.137,73.966C54.531,73.966 54.819,73.996 55.001,74.057C55.517,74.148 55.881,74.193 56.093,74.193C56.578,74.193 56.904,73.731 57.071,72.806C57.237,71.882 57.336,69.994 57.366,67.144L57.412,59.004C57.412,54.456 57.321,51.584 57.139,50.386C56.957,49.189 56.532,48.59 55.865,48.59C55.653,48.59 55.335,48.635 54.91,48.726C54.486,48.817 54.152,48.863 53.91,48.863C52.879,48.863 52.364,48.378 52.364,47.407C52.364,46.983 52.546,46.619 52.909,46.316C53.273,46.013 53.713,45.861 54.228,45.861C54.38,45.861 54.895,45.907 55.774,45.998C56.351,46.058 56.972,46.089 57.639,46.089C57.912,46.089 58.291,46.058 58.776,45.998C59.261,45.937 59.61,45.907 59.822,45.907C60.519,45.907 60.868,46.407 60.868,47.407L60.868,47.498Z" style="fill:rgb(38,35,29);fill-rule:nonzero;"/>
            </g>
        </g>
    </g>
</svg>
